<svg width="20" height="19" viewBox="0 0 20 19" fill="none" xmlns="http://www.w3.org/2000/svg">
<path d="M18 6.00098H12.388L13.511 2.63398C13.713 2.02598 13.611 1.35198 13.236 0.831977C12.861 0.311977 12.253 0.000976562 11.612 0.000976562H10C9.703 0.000976562 9.422 0.132976 9.231 0.360976L4.531 6.00098H2C0.897 6.00098 0 6.89798 0 8.00098V17.001C0 18.104 0.897 19.001 2 19.001H5H15.307C16.136 19.001 16.888 18.48 17.18 17.703L19.937 10.352C19.979 10.24 20 10.121 20 10.001V8.00098C20 6.89798 19.103 6.00098 18 6.00098ZM2 8.00098H4V17.001H2V8.00098ZM18 9.81998L15.307 17.001H6V7.36298L10.468 2.00098H11.614L10.052 6.68398C9.949 6.98898 10.001 7.32398 10.189 7.58498C10.377 7.84698 10.679 8.00098 11 8.00098H18V9.81998Z" fill="#3B2317"/>
</svg>
