<svg width="19" height="20" viewBox="0 0 19 20" fill="none" xmlns="http://www.w3.org/2000/svg">
<path d="M3.5 13.001C4.41 13.001 5.233 12.643 5.857 12.071L12.117 15.648C12.048 15.923 12 16.205 12 16.501C12 18.431 13.57 20.001 15.5 20.001C17.43 20.001 19 18.431 19 16.501C19 14.571 17.43 13.001 15.5 13.001C14.59 13.001 13.767 13.359 13.143 13.931L6.883 10.354C6.946 10.107 6.986 9.85198 6.991 9.58598L13.142 6.07098C13.767 6.64298 14.59 7.00098 15.5 7.00098C17.43 7.00098 19 5.43098 19 3.50098C19 1.57098 17.43 0.000976562 15.5 0.000976562C13.57 0.000976562 12 1.57098 12 3.50098C12 3.79698 12.048 4.07898 12.117 4.35398L6.433 7.60298C5.808 6.64098 4.729 6.00098 3.5 6.00098C1.57 6.00098 0 7.57098 0 9.50098C0 11.431 1.57 13.001 3.5 13.001ZM15.5 15.001C16.327 15.001 17 15.674 17 16.501C17 17.328 16.327 18.001 15.5 18.001C14.673 18.001 14 17.328 14 16.501C14 15.674 14.673 15.001 15.5 15.001ZM15.5 2.00098C16.327 2.00098 17 2.67398 17 3.50098C17 4.32798 16.327 5.00098 15.5 5.00098C14.673 5.00098 14 4.32798 14 3.50098C14 2.67398 14.673 2.00098 15.5 2.00098ZM3.5 8.00098C4.327 8.00098 5 8.67398 5 9.50098C5 10.328 4.327 11.001 3.5 11.001C2.673 11.001 2 10.328 2 9.50098C2 8.67398 2.673 8.00098 3.5 8.00098Z" fill="#3B2317"/>
</svg>
