<svg width="387" height="361" viewBox="0 0 387 361" fill="none" xmlns="http://www.w3.org/2000/svg">
<g opacity="0.4">
<g clip-path="url(#clip0_2_5806)">
<path d="M178.37 211.879C175.552 216.544 173.687 221.548 173.072 226.903C171.948 237.026 173.062 247.06 174.798 257.041C174.882 257.583 174.911 258.123 174.968 258.664C174.751 258.708 174.507 258.751 174.289 258.795C173.548 254.887 172.563 251.021 172.119 247.099C171.517 241.878 171.052 236.609 171.045 231.334C171.015 222.317 174.415 214.26 178.875 206.573C180.042 204.553 181.584 203.168 184.404 203.294C178.314 212.523 177.926 223.055 176.552 233.355C176.361 226.161 176.869 218.998 178.369 211.906L178.37 211.879Z" fill="#C89663"/>
<path d="M163.601 158.553C138.663 141.403 125.617 117.085 121.194 87.6602C124.163 101.383 128.69 114.557 135.76 126.821C142.955 139.306 152.79 149.325 163.628 158.554L163.601 158.553Z" fill="#C89663"/>
<path d="M130.256 191.194C105.432 196.871 80.4288 200.521 54.9226 196.129C67.4875 197.415 80.0972 197.089 92.6146 195.816C105.184 194.572 117.699 192.761 130.256 191.194Z" fill="#C89663"/>
<path d="M143.045 204.359C118.036 215.41 99.1422 234.162 80.3662 253.295C80.5978 252.928 80.7757 252.56 81.033 252.221C81.2915 251.856 81.6282 251.548 81.9392 251.212C94.2791 237.605 107.03 224.447 122.474 214.262C128.878 210.053 135.627 206.559 143.047 204.332L143.045 204.359Z" fill="#C89663"/>
<path d="M144.657 171.785C144.657 171.785 144.515 171.967 144.405 172.016C144.322 172.066 144.212 172.115 144.104 172.11C143.997 172.105 143.86 172.153 143.782 172.096C143.57 172.033 143.358 171.942 143.175 171.827C125.953 161.506 107.243 154.375 89.3128 145.449C95.6611 147.938 102.069 150.296 108.358 152.918C114.672 155.567 120.896 158.428 127.119 161.315C140.885 167.661 143.217 169.083 144.658 171.758L144.657 171.785Z" fill="#C89663"/>
<path d="M189.945 338.132C173.763 317.147 167.37 292.694 165.377 266.742C169.862 291.729 170.95 308.409 189.945 338.132Z" fill="#C89663"/>
<path d="M96.913 78.721C101.067 107.514 117.221 129.145 138.715 148.08C132.39 145.08 117.991 129.368 110.395 117.43C102.218 104.632 96.3857 88.144 96.913 78.721Z" fill="#C89663"/>
<path d="M120.477 240.979C131.847 224.368 152.274 205.631 161.158 203.739C157.515 206.376 153.744 208.873 150.254 211.704C146.597 214.664 143.115 217.9 139.688 221.138C136.344 224.299 133.102 227.6 129.887 230.902C126.699 234.204 123.613 237.62 120.477 240.979Z" fill="#C89663"/>
<path d="M232.538 84.5173C223.836 102.861 214.687 120.97 207.173 139.824C213.211 120.258 222.467 102.181 232.538 84.5173Z" fill="#C89663"/>
<path d="M200.406 188.45C213.063 201.555 228.698 208.253 244.176 215.428C241.683 214.591 239.131 213.885 236.697 212.942C224.743 208.212 213.26 202.587 203.583 193.867C201.15 191.686 201.079 191.468 200.379 188.449L200.406 188.45Z" fill="#C89663"/>
<path d="M88.1603 235.395C81.2715 243.835 74.0701 252.046 67.5466 260.744C60.9939 269.495 56.6985 279.531 53.0137 289.755C58.5749 267.611 72.1936 250.67 88.1615 235.368L88.1603 235.395Z" fill="#C89663"/>
<path d="M29.2267 206.261L77.0637 208.391C60.6887 209.869 44.8569 210.025 29.1998 206.26L29.2267 206.261Z" fill="#C89663"/>
<path d="M261.196 185.56C255.026 182.702 248.554 181.176 241.845 180.742C235.215 180.339 228.603 180.153 221.978 179.642C233.263 178.261 244.446 178.544 255.485 181.457C257.187 181.91 258.818 182.763 260.424 183.561C260.898 183.798 261.166 184.428 261.549 184.876C261.432 185.086 261.342 185.298 261.224 185.535L261.196 185.56Z" fill="#C89663"/>
<path d="M126.939 123.63C135.079 137.879 145.744 149.792 159.497 158.855C150.164 156.287 133.816 139.034 126.939 123.63Z" fill="#C89663"/>
<path d="M199.207 125.905C197.942 131.339 196.491 136.738 195.438 142.235C194.208 148.72 193.19 155.268 192.307 161.796C192.024 163.909 192.49 166.137 192.337 168.364C191.171 166.751 190.82 164.959 190.986 163.056C191.394 158.714 191.457 154.276 192.374 150.011C194.002 142.467 196.136 135.027 198.083 127.578C198.246 126.939 198.621 126.364 198.89 125.757C198.995 125.815 199.129 125.848 199.234 125.906L199.207 125.905Z" fill="#C89663"/>
<path d="M31.3943 164.832C34.9901 162.65 46.6615 164.058 68.9194 168.871C56.4107 167.533 43.9031 166.169 31.3943 164.832Z" fill="#C89663"/>
<path d="M230.761 31.958C226.996 42.7708 223.203 53.6093 219.374 64.6615C219.357 58.9821 227.61 34.4282 230.761 31.958Z" fill="#C89663"/>
<path d="M106.455 283.872C99.4707 296.883 90.4013 307.756 85.582 308.402C93.9402 300.808 99.7445 291.943 106.455 283.872Z" fill="#C89663"/>
<path d="M149.582 174.211C152.257 164.911 166.088 157.103 178.806 159.796C172.651 160.813 167.034 160.644 161.992 163.272C156.95 165.9 152.601 169.286 149.581 174.238L149.582 174.211Z" fill="#C89663"/>
<path d="M115.656 31.3007C116.134 32.0486 116.47 32.3596 116.458 32.6282C116.097 41.3588 115.68 50.1139 115.316 58.2792C113.988 53.0528 113.942 37.1721 115.629 31.2995L115.656 31.3007Z" fill="#C89663"/>
<path d="M192.197 73.0059C186.759 82.7216 186.108 93.1079 183.691 102.662C183.168 91.4429 187.571 74.7646 192.197 73.0059Z" fill="#C89663"/>
<path d="M141.467 74.8107C139.475 65.141 140.125 55.3736 141.153 45.5962C141.607 55.332 142.063 65.0409 142.518 74.7767C142.167 74.788 141.817 74.7994 141.467 74.8107Z" fill="#C89663"/>
<path d="M225.797 202.069C216.784 198.977 203.274 189.897 202.332 186.276C210.144 191.549 217.958 196.795 225.797 202.069Z" fill="#C89663"/>
<path d="M142.03 224.122C148.712 216.696 155.608 209.306 164.42 204.208C164.574 204.376 164.702 204.543 164.856 204.712C157.247 211.182 149.639 217.652 142.03 224.122Z" fill="#C89663"/>
<path d="M235.592 248.634C230.945 249.046 218.909 240.113 213.437 232.441C220.44 238.351 227.158 244.625 235.592 248.634Z" fill="#C89663"/>
<path d="M163.373 193.288C173.314 195.479 183.03 193.032 192.823 191.908C183.105 194.381 173.415 196.83 163.373 193.288Z" fill="#C89663"/>
<path d="M197.623 195.916C199.515 204.209 205.871 209.552 210.922 216.397C203.998 212.321 196.515 200.873 197.623 195.916Z" fill="#C89663"/>
<path d="M287.546 212.704C280.593 210.483 273.64 208.29 266.448 206.005C270.96 205.614 285.177 209.692 287.739 211.986C287.675 212.225 287.61 212.464 287.546 212.704Z" fill="#C89663"/>
<path d="M120.781 166.443C131.075 168.57 141.225 172.709 143.165 175.675C135.343 172.447 128.076 169.432 120.781 166.443Z" fill="#C89663"/>
<path d="M23.9447 138.125C27.7977 136.816 39.2338 138.671 49.7829 142.317C41.2589 140.941 32.7618 139.567 23.9447 138.125Z" fill="#C89663"/>
<path d="M161.528 166.428C168.278 161.722 175.663 160.867 183.54 162.86C176.009 162.766 168.516 163.025 161.528 166.428Z" fill="#C89663"/>
<path d="M161.613 176.604C164.916 174.356 176.1 175.822 183.37 179.376C175.838 178.69 168.934 175.988 161.613 176.604Z" fill="#C89663"/>
<path d="M188.913 165.493C186.741 157.457 189.103 149.758 190.633 141.994C190.39 149.869 187.921 157.564 188.913 165.493Z" fill="#C89663"/>
<path d="M234.946 174.891C244.087 174.518 253.259 176.433 254.742 178.787C248.152 177.498 241.535 176.207 234.946 174.891Z" fill="#C89663"/>
<path d="M197.618 271.003C194.544 269.306 190.178 258.561 189.864 252.923C192.496 259.095 195.057 265.049 197.618 271.003Z" fill="#C89663"/>
<path d="M181.27 94.7757C181.271 86.2981 182.708 78.7996 185.371 76.4153C183.961 82.7039 182.549 89.0194 181.27 94.7757Z" fill="#C89663"/>
<path d="M27.6822 159.956C31.3973 158.722 34.5069 160.206 37.597 160.317C40.7139 160.429 43.7824 161.023 47.6627 161.518C41.0486 161.978 30.4522 161.21 27.6822 159.956Z" fill="#C89663"/>
<path d="M101.823 296.638C99.6314 301.734 96.6018 306.309 92.5827 310.14C92.2968 309.912 92.0097 309.711 91.7238 309.483C95.0906 305.192 98.4562 300.928 101.85 296.639L101.823 296.638Z" fill="#C89663"/>
<path d="M220.981 44.2793C221.57 39.515 222.743 34.9382 225.456 30.2147C225.818 31.1459 226.174 31.6192 226.054 31.9099C224.39 36.0342 222.672 40.1562 220.981 44.2793Z" fill="#C89663"/>
<path d="M227.964 239.224C232.845 240.814 238.41 243.968 240.004 246.246C235.283 244.69 231.778 242.408 227.964 239.224Z" fill="#C89663"/>
<path d="M110.494 50.5287C109.328 46.4937 108.675 42.4277 109.53 38.348C109.745 38.3576 109.987 38.3415 110.204 38.3242C110.292 42.392 110.38 46.4597 110.469 50.5007L110.494 50.5287Z" fill="#C89663"/>
<path d="M145.649 193.01C146.781 188.161 148.762 185.988 151.629 186.277C149.702 188.453 147.832 190.55 145.649 193.01Z" fill="#C89663"/>
<path d="M165.056 172.425C168.415 171.928 171.719 172.075 175.499 173.616L164.97 173.147C164.98 172.906 165.018 172.665 165.056 172.425Z" fill="#C89663"/>
<path d="M389.952 -23.6875C389.086 -22.9725 388.17 -22.3405 387.382 -21.5682C372.941 -7.30147 362.975 9.80193 355.706 28.5865C349.929 43.4812 344.551 58.5013 338.828 73.3985C336.818 78.6378 334.411 83.7516 332.031 88.8399C324.271 105.369 312.548 118.411 297.505 128.668C282.739 138.722 266.632 145.674 249.537 150.619C242.639 152.626 235.954 155.289 229.173 157.678C228.161 158.037 227.218 158.668 225.979 159.285C232.58 160.952 238.806 162.548 245.035 164.09C253.819 166.284 262.422 168.901 269.563 174.736C278.625 182.164 285.628 191.115 288.611 202.686C292.516 217.743 283.975 232.46 273.336 238.688C266.731 242.565 260.228 246.582 253.775 250.681C246.461 255.361 238.692 258.191 229.856 257.179C224.689 256.572 219.748 255.114 214.969 253.044C213.965 252.623 212.988 252.202 211.587 251.629C211.839 253.82 212.164 255.584 212.248 257.337C212.517 262.166 211.134 266.626 209.136 271.004C206.662 276.411 204.08 281.814 202.213 287.463C198.269 299.29 198.621 311.336 201.366 323.408C202.152 326.915 202.694 330.464 203.154 334.037C203.688 338.367 203.068 342.619 201.304 346.577C198.789 352.278 194.382 353.939 188.569 351.527C184.606 349.87 181.495 347.202 179.011 343.754C175.894 339.417 173.686 334.609 172.109 329.533C170.812 325.411 168.879 321.665 166.648 317.986C159.527 306.258 154.573 293.604 151.725 280.209C151.102 277.275 150.995 274.229 150.602 270.982C150.233 271.396 149.845 271.648 149.694 272.018C144.078 285.117 134.396 294.643 122.851 302.499C117.799 305.934 112.476 308.846 106.537 310.465C101.469 311.855 96.2831 312.27 91.2491 310.485C82.6382 307.437 73.6742 306.876 64.7222 306.047C57.8874 305.42 51.8614 302.944 46.648 298.541C41.6936 294.364 39.4546 289.043 39.5303 282.507C39.6739 271.425 44.119 262.257 51.3402 254.209C53.294 252.035 55.4811 250.06 57.4093 247.858C60.6118 244.233 63.8926 240.665 66.8093 236.812C70.6978 231.683 74.6108 226.61 79.5856 222.471C79.9772 222.139 80.2673 221.667 80.8356 220.993C79.8173 220.894 79.1542 220.676 78.5573 220.784C71.7265 221.879 65.0582 220.533 58.5338 218.977C45.8306 215.962 34.0921 210.622 23.3906 203.148C18.5615 199.785 14.1007 196.007 10.5437 191.273C4.87929 183.7 6.67894 175.922 15.1037 171.668C20.1142 169.146 25.1467 166.733 30.4842 164.118C29.1682 162.848 27.9172 161.931 26.9748 160.732C18.8551 150.278 19.1929 136.648 29.4254 128.061C37.4218 121.339 46.62 117.846 57.4128 118.434C71.6425 119.203 84.7545 123.312 97.2133 130.003C99.4473 131.206 101.685 132.328 103.947 133.505C104.118 133.298 104.262 133.089 104.431 132.908C103.692 131.987 102.924 131.092 102.212 130.172C98.3477 125.075 94.1801 120.152 90.7055 114.777C86.1465 107.765 84.0748 99.8945 83.9131 91.4366C83.6292 74.8456 89.9072 60.7806 99.8953 48.0111C103.034 44.0063 106.352 40.1979 110.547 37.2627C112.715 35.7176 114.127 33.6274 115.257 31.2018C116.776 27.9322 118.241 24.6333 120.126 21.5953C122.824 17.221 126.642 14.2691 131.904 13.3462C134.887 12.8331 137.513 13.7036 140.015 14.9453C150.103 19.8621 156.798 27.8573 159.602 38.6396C161.327 45.2293 162.421 52.087 162.872 58.8892C163.384 66.7167 162.897 74.6344 162.79 82.4882C162.589 94.8591 162.01 107.24 163.696 119.561C163.901 120.996 164.078 122.457 164.364 123.896C164.519 124.63 164.892 125.319 165.355 126.417C165.64 113.376 168.12 101.188 172.652 89.4671C176.97 78.329 183.171 68.4052 191.574 59.7904C194.508 56.7722 196.694 52.9941 199.033 49.4381C201.371 45.8821 203.293 42.0115 205.762 38.542C209.206 33.7165 213.898 30.4805 219.866 29.4275C227.924 27.9831 242.61 32.4049 244.847 45.019C245.729 49.9834 246.394 54.9919 247.277 59.9562C248.831 68.5568 250.765 77.1205 252.075 85.7641C254.142 99.178 252.782 112.197 246.821 124.581C243.647 131.195 239.306 136.814 233.817 141.63C227.459 147.214 221.205 152.883 216.5 160.021C216.009 160.779 215.519 161.511 215.053 162.298C214.965 162.455 215.035 162.7 215.092 163.241C216.88 162.379 218.658 161.731 220.209 160.751C229.288 155.1 239.163 151.503 249.41 148.648C265.787 144.103 281.135 137.278 295.335 127.844C311.614 117.024 324.134 102.994 331.772 84.9798C337.728 70.9004 343.234 56.6395 348.556 42.2897C353.693 28.4699 358.908 14.7074 366.578 2.0231C372.419 -7.67456 379.351 -16.4894 387.532 -24.3335C388.32 -25.1058 389.289 -25.7086 390.153 -26.3699L390.032 -23.6571L389.952 -23.6875ZM147.431 166.903C134.743 155.707 121.292 145.904 106.979 137.328C93.6368 129.332 79.9383 122.075 64.0864 120.266C55.7325 119.302 47.4096 118.85 39.6904 122.974C36.4372 124.713 33.1757 126.64 30.3516 129.017C18.2735 139.164 22.1995 156.159 30.8037 162.383C31.4561 162.842 31.9096 163.535 32.4742 164.152C29.3858 165.818 26.655 167.311 23.8996 168.75C21.0064 170.262 18.0642 171.665 15.1979 173.179C8.08511 176.98 6.33091 183.738 11.2982 190.042C14.1254 193.639 17.4492 196.963 21.0374 199.787C31.6982 208.174 43.8019 213.773 56.8889 217.235C63.7517 219.048 70.7555 220.113 77.9104 219.598C81.0697 219.362 84.0786 218.877 86.8752 217.117C101.884 207.639 117.703 199.92 134.872 195.114C136.561 194.651 138.228 194.079 139.32 193.724C139.976 190.496 140.494 187.909 141.188 184.414C139.846 178.891 140.748 176.159 147.485 166.905L147.431 166.903ZM140.283 195.085C139.96 195.071 139.745 195.061 139.528 195.106C126.598 198.997 114.006 203.765 101.772 209.545C87.7228 216.213 76.0858 225.518 67.403 238.588C64.6332 242.771 60.8958 246.318 57.5249 250.097C54.9174 253.049 52.0766 255.803 49.5999 258.841C43.9307 265.882 40.8263 273.952 40.6369 283.04C40.5045 289.036 42.5944 294.081 47.27 297.869C52.2561 301.939 57.9328 304.399 64.4477 304.958C73.617 305.743 82.8263 306.234 91.679 309.293C94.3291 310.218 97.4251 310.194 100.309 310.107C106.184 309.912 111.456 307.563 116.455 304.69C128.774 297.596 139.138 288.476 146.209 275.953C148.955 271.097 150.744 265.982 150.863 260.282C150.907 257.485 151.408 254.681 152.015 251.936C155.723 235.146 163.873 220.734 175.572 208.229C176.053 207.712 176.429 207.11 176.916 206.459C173.949 206.004 171.304 205.563 168.628 205.229C167.397 205.066 166.161 205.011 164.919 205.117C155.084 205.971 146.76 203.125 140.285 195.032L140.283 195.085ZM204.473 178.082C205.641 175.443 206.381 173.322 207.49 171.38C208.599 169.438 210.102 167.729 211.394 165.902C211.594 165.642 211.716 165.325 211.864 165.008C215.683 157.212 221.244 150.785 227.562 144.904C230.426 142.232 233.059 139.308 235.665 136.383C241.931 129.234 243.495 120.719 243.016 111.52C242.629 104.505 240.965 97.7569 239.302 90.9816C236.862 81.1035 236.411 71.2871 238.553 61.2633C239.944 54.7854 240.456 48.1338 239.65 41.4504C239.277 38.3388 238.126 35.7847 235.146 34.414C233.116 33.4624 231.058 32.5364 228.938 31.7961C223.37 29.9065 218.67 30.9083 214.823 35.7159C211.145 40.3426 208.151 45.3228 205.917 50.7674C204.288 54.7049 202.685 58.6704 200.951 62.5763C198.827 67.353 195.461 71.0247 190.905 73.6208C188.474 75.0197 186.067 76.5003 183.686 77.9822C179.256 80.7722 176.231 84.6476 174.316 89.5681C170.392 99.728 168.067 110.228 167.049 121.002C166.651 125.102 167.029 129.317 167.547 133.404C168.744 142.769 174.034 150.298 179.272 157.771C179.93 158.715 181.199 159.229 182.219 159.894C184.496 161.341 186.973 162.527 188.996 164.232C191.591 166.393 194.163 168.472 197.045 170.242C199.087 171.518 200.665 173.552 202.39 175.298C203.059 176 203.587 176.831 204.476 178.028L204.473 178.082ZM148.57 71.8165C148.421 70.3296 148.378 68.8744 148.117 67.4902C147.164 62.8995 147.151 58.3507 148.323 53.8007C149.331 49.8894 150.287 45.9489 151.455 42.0985C152.841 37.5581 153.017 32.9908 151.711 28.4919C151.152 26.5293 150.146 24.3316 148.67 23.0278C145.667 20.3643 142.386 17.9037 138.864 15.9975C134.449 13.6209 129.797 14.1405 125.91 17.4123C123.896 19.1258 122.105 21.2797 120.712 23.5323C119.086 26.205 118.194 29.3141 116.673 32.0453C115.443 34.2781 114.124 36.7222 112.173 38.2232C105.371 43.4914 100.309 50.2095 95.7127 57.3251C89.2942 67.2932 85.7711 78.1167 85.5881 90.0848C85.4751 98.665 87.6006 106.537 91.9023 113.888C96.654 122.012 102.827 129.042 109.365 135.738C111.244 137.652 113.375 139.362 115.595 140.887C125.728 147.824 135.776 154.865 145.023 162.974C146.265 164.079 147.679 164.976 149.11 166.063C155.643 160.783 163.026 158.178 171.255 157.71C171.041 157.081 171.026 156.812 170.869 156.697C170.196 156.102 169.495 155.532 168.794 154.963C159.295 147.058 150.974 138.102 144.392 127.582C137.107 115.901 133.278 103.377 134.626 89.4156C135.522 80.1706 139.306 74.9834 148.542 71.8421L148.57 71.8165ZM288.02 211.729C287.951 210.865 287.849 209.515 287.775 208.166C287.34 201.014 283.885 195.801 277.51 192.691C274.691 191.328 271.695 190.333 268.725 189.34C264.934 188.041 261.519 186.166 258.713 183.296C256.989 181.524 255.125 179.853 253.596 177.928C248.699 171.87 242.627 167.401 235.705 163.89C226.546 159.257 215.86 161.714 210.15 170.261C208.595 172.56 207.481 175.202 206.451 177.793C203.144 186.177 199.678 194.501 194.348 201.799C191.281 205.995 188.984 210.441 188.141 215.463C186.603 224.626 188.321 233.18 195.688 239.402C202.846 245.453 211.01 250.069 219.945 253.104C222.066 253.818 224.574 253.714 226.87 253.52C230.518 253.198 233.308 250.981 235.916 248.621C243.125 242.052 251.506 238.173 261.268 237.128C264.594 236.765 267.963 236.053 271.084 234.874C280.884 231.165 287.409 223.032 288.074 211.732L288.02 211.729ZM193.987 200.222C193.832 200.08 193.678 199.912 193.523 199.771C191.043 201.06 188.681 202.731 186.033 203.582C180.599 205.331 176.801 209.038 173.306 213.188C167.649 219.96 162.986 227.369 159.292 235.386C152.472 250.127 150.438 265.592 153.742 281.456C156.426 294.305 161.489 306.319 168.253 317.6C170.257 320.946 171.9 324.545 173.298 328.213C175.225 333.278 177.1 338.314 180.32 342.763C182.88 346.322 186.067 349.074 190.283 350.5C194.126 351.828 196.721 350.975 198.945 347.575C201.053 344.359 201.375 340.74 200.322 337.195C199.318 333.759 197.823 330.463 196.299 327.219C193.448 321.118 189.887 315.28 187.583 308.988C183.766 298.618 184.651 288.403 190.884 278.992C193.249 275.437 195.902 272.057 198.345 268.559C200.414 265.61 202.589 262.72 204.29 259.566C206.05 256.307 206.99 252.716 206.436 248.843C203.584 247.02 200.807 245.309 198.116 243.493C194.509 241.099 191.462 238.191 189.292 234.354C184.053 225.078 185.481 211.146 192.147 202.858C192.83 202.027 193.385 201.056 193.99 200.168L193.987 200.222ZM177.159 158.08C177.092 157.781 177.104 157.513 177.004 157.347C176.45 156.488 175.895 155.656 175.313 154.822C167.65 143.77 163.295 131.573 161.71 118.207C160.303 106.303 160.618 94.3946 161.122 82.4677C161.536 72.5553 161.896 62.6673 160.666 52.8163C159.857 46.2135 158.829 39.6817 156.006 33.5545C155.614 32.7027 155.056 31.9243 154.381 30.7639C154.129 31.587 153.954 31.9022 153.968 32.1988C154.234 37.7009 152.9 42.8895 151.243 48.0637C149.019 55.0966 147.759 62.2263 150.015 69.5932C150.321 70.5757 149.973 71.7444 149.919 72.953C148.906 73.3385 148.107 73.7605 147.264 73.9651C142.337 75.1991 139.072 78.4178 137.68 83.0925C136.541 86.9172 135.766 91.0273 135.803 95.0121C135.948 105.057 138.73 114.52 143.694 123.299C149.283 133.183 156.489 141.793 164.784 149.509C167.498 152.025 170.352 154.413 173.235 156.748C174.301 157.603 175.463 158.705 177.132 158.079L177.159 158.08ZM203.663 181.168C201.208 175.864 197.761 172.293 192.93 170.167C184.906 166.634 176.959 167.41 169.11 170.829C168.204 171.219 167.393 171.909 166.638 172.549C164.117 174.778 161.595 177.007 159.125 179.292C157.916 180.449 156.678 181.659 155.755 183.044C149.728 192.088 154.69 200.921 162.912 202.444C165.127 202.866 167.349 203.126 169.532 203.654C178.665 205.864 186.592 203.122 193.829 197.739C195.054 196.824 196.316 195.67 197.022 194.328C199.368 189.992 201.477 185.538 203.664 181.141L203.663 181.168ZM208.23 249.649C207.959 249.691 207.688 249.733 207.417 249.774C208.365 258.106 203.896 264.177 199.269 270.188C198.583 271.073 197.846 271.928 197.212 272.869C195.111 275.924 192.88 278.893 190.988 282.092C188.05 287.021 186.652 292.422 186.88 298.191C187.084 303.287 188.264 308.211 190.508 312.805C193.885 319.764 197.372 326.675 200.831 333.611C200.882 333.694 201.151 333.679 201.606 333.753C201.088 330.877 200.671 328.14 200.093 325.423C198.745 318.824 197.316 312.22 197.483 305.445C197.719 294.718 200.376 284.609 205.137 274.998C206.733 271.786 208.251 268.516 209.504 265.154C211.033 261.05 211.008 256.77 209.849 252.574C209.572 251.539 208.751 250.641 208.174 249.7L208.23 249.649ZM243.684 126.137C243.91 125.904 244.189 125.675 244.335 125.412C244.774 124.624 245.16 123.807 245.545 123.017C251.566 110.501 252.475 97.3276 250.196 83.8503C248.745 75.3351 246.941 66.8848 245.354 58.4173C244.505 53.9119 243.766 49.3577 242.917 44.8523C242.762 44.0919 242.308 43.3988 241.99 42.6849C241.433 43.7097 241.394 44.5962 241.354 45.4825C241.191 49.1623 241.214 52.8773 240.863 56.5218C240.39 61.1029 239.409 65.6074 238.909 70.1873C238.07 78.1431 239.692 85.8317 241.613 93.4797C244.311 104.204 246.253 114.974 243.71 126.165L243.684 126.137ZM187.96 165.747C185.511 162.112 178.162 159.74 173.492 159.451C163.267 158.807 154.574 162.43 147.265 169.425C144.426 172.152 142.976 175.693 142.108 179.476C141.641 181.501 141.848 183.502 143.813 185.312C144.675 185.296 145.924 185.648 146.805 185.203C149.636 183.875 152.522 182.524 155 180.669C158.371 178.101 161.488 175.172 164.528 172.186C167.286 169.482 170.589 167.826 174.277 167.21C178.777 166.469 183.337 166.214 187.96 165.747ZM283.273 194.428C279.238 186.524 274.024 179.725 266.716 174.61C260.19 170.067 246.928 165.089 242.591 165.784C247.625 168.781 251.369 172.957 255.056 177.185C256.822 179.229 258.613 181.3 260.693 182.954C262.849 184.691 265.226 186.304 267.763 187.359C272.995 189.53 278.56 190.881 283.274 194.401L283.273 194.428ZM228.542 255.263C228.888 255.333 229.315 255.432 229.743 255.478C237.18 256.482 243.988 254.686 250.324 250.824C257.986 246.159 265.676 241.496 273.312 236.803C274.391 236.151 275.343 235.332 276.344 234.597C271.349 236.769 266.285 238.078 261.036 238.705C251.566 239.845 243.528 243.874 236.387 250.122C234.063 252.145 231.228 253.553 228.514 255.289L228.542 255.263ZM214.474 33.2782C210.972 35.1676 208.58 37.5102 206.705 40.3333C204.541 43.6011 202.559 47.0115 200.709 50.4816C198.359 54.8984 195.543 58.9175 191.892 62.3344C187.258 66.6763 183.74 71.9292 180.46 77.3003C180.17 77.7718 180.117 78.3615 179.894 79.1321C183.884 76.5646 187.542 74.1977 191.279 71.8612C194.713 69.6996 197.318 66.8013 199.119 63.2214C200.24 61.0106 201.308 58.7706 202.191 56.4685C205.234 48.5839 208.698 40.9065 214.262 34.3991C214.376 34.2696 214.36 34.0267 214.502 33.2525L214.474 33.2782ZM151.147 187.414C149.729 185.414 148.303 186.615 146.925 186.742C145.412 186.863 143.905 186.877 142.396 186.917C140.606 190.847 141.234 194.266 144.328 197.311C146.777 199.734 149.719 201.346 153.014 202.3C154.741 202.807 156.414 203.904 158.868 203.206C152.471 199.396 151.337 193.425 151.174 187.416L151.147 187.414Z" fill="#C89663"/>
</g>
<g clip-path="url(#clip1_2_5806)">
<path d="M178.37 212.336C175.552 217.001 173.687 222.005 173.072 227.36C171.948 237.483 173.062 247.517 174.798 257.498C174.882 258.04 174.911 258.58 174.968 259.121C174.751 259.165 174.507 259.208 174.289 259.252C173.548 255.344 172.563 251.478 172.119 247.556C171.517 242.335 171.052 237.066 171.045 231.791C171.015 222.774 174.415 214.717 178.875 207.03C180.042 205.01 181.584 203.625 184.404 203.751C178.314 212.98 177.926 223.512 176.552 233.813C176.361 226.618 176.869 219.455 178.369 212.363L178.37 212.336Z" fill="#C89663"/>
<path d="M163.601 159.01C138.663 141.86 125.617 117.542 121.194 88.1172C124.163 101.84 128.69 115.014 135.76 127.278C142.955 139.763 152.79 149.782 163.628 159.011L163.601 159.01Z" fill="#C89663"/>
<path d="M130.256 191.651C105.432 197.328 80.4288 200.978 54.9226 196.586C67.4875 197.872 80.0972 197.546 92.6146 196.273C105.184 195.03 117.699 193.218 130.256 191.651Z" fill="#C89663"/>
<path d="M143.045 204.816C118.036 215.867 99.1422 234.619 80.3662 253.752C80.5978 253.385 80.7757 253.017 81.033 252.678C81.2915 252.313 81.6282 252.005 81.9392 251.669C94.2791 238.062 107.03 224.904 122.474 214.719C128.878 210.51 135.627 207.016 143.047 204.789L143.045 204.816Z" fill="#C89663"/>
<path d="M144.657 172.242C144.657 172.242 144.515 172.424 144.405 172.473C144.322 172.523 144.212 172.572 144.104 172.567C143.997 172.563 143.86 172.61 143.782 172.553C143.57 172.49 143.358 172.4 143.175 172.284C125.953 161.963 107.243 154.832 89.3128 145.906C95.6611 148.395 102.069 150.753 108.358 153.375C114.672 156.024 120.896 158.885 127.119 161.772C140.885 168.118 143.217 169.54 144.658 172.215L144.657 172.242Z" fill="#C89663"/>
<path d="M189.945 338.59C173.763 317.604 167.37 293.151 165.377 267.199C169.862 292.186 170.95 308.866 189.945 338.59Z" fill="#C89663"/>
<path d="M96.913 79.178C101.067 107.971 117.221 129.602 138.715 148.537C132.39 145.537 117.991 129.825 110.395 117.887C102.218 105.089 96.3857 88.601 96.913 79.178Z" fill="#C89663"/>
<path d="M120.477 241.436C131.847 224.825 152.274 206.088 161.158 204.196C157.515 206.833 153.744 209.33 150.254 212.161C146.597 215.121 143.115 218.357 139.688 221.595C136.344 224.756 133.102 228.057 129.887 231.359C126.699 234.661 123.613 238.077 120.477 241.436Z" fill="#C89663"/>
<path d="M232.538 84.9743C223.836 103.318 214.687 121.427 207.173 140.281C213.211 120.715 222.467 102.638 232.538 84.9743Z" fill="#C89663"/>
<path d="M200.406 188.907C213.063 202.012 228.698 208.71 244.176 215.885C241.683 215.048 239.131 214.342 236.697 213.399C224.743 208.669 213.26 203.044 203.583 194.324C201.15 192.143 201.079 191.925 200.379 188.906L200.406 188.907Z" fill="#C89663"/>
<path d="M88.1603 235.852C81.2715 244.292 74.0701 252.503 67.5466 261.201C60.9939 269.952 56.6985 279.988 53.0137 290.212C58.5749 268.068 72.1936 251.127 88.1615 235.825L88.1603 235.852Z" fill="#C89663"/>
<path d="M29.2267 206.718L77.0637 208.848C60.6887 210.326 44.8569 210.482 29.1998 206.717L29.2267 206.718Z" fill="#C89663"/>
<path d="M261.196 186.017C255.026 183.159 248.554 181.633 241.845 181.199C235.215 180.797 228.603 180.61 221.978 180.099C233.263 178.718 244.446 179.001 255.485 181.914C257.187 182.367 258.818 183.22 260.424 184.018C260.898 184.255 261.166 184.886 261.549 185.333C261.432 185.543 261.342 185.755 261.224 185.992L261.196 186.017Z" fill="#C89663"/>
<path d="M126.939 124.087C135.079 138.337 145.744 150.249 159.497 159.312C150.164 156.744 133.816 139.491 126.939 124.087Z" fill="#C89663"/>
<path d="M199.207 126.362C197.942 131.796 196.491 137.195 195.438 142.692C194.208 149.177 193.19 155.725 192.307 162.253C192.024 164.366 192.49 166.594 192.337 168.821C191.171 167.208 190.82 165.416 190.986 163.513C191.394 159.171 191.457 154.733 192.374 150.468C194.002 142.924 196.136 135.484 198.083 128.035C198.246 127.396 198.621 126.821 198.89 126.214C198.995 126.272 199.129 126.305 199.234 126.363L199.207 126.362Z" fill="#C89663"/>
<path d="M31.3943 165.289C34.9901 163.107 46.6615 164.515 68.9194 169.328C56.4107 167.99 43.9031 166.626 31.3943 165.289Z" fill="#C89663"/>
<path d="M230.761 32.415C226.996 43.2278 223.203 54.0663 219.374 65.1185C219.357 59.4391 227.61 34.8853 230.761 32.415Z" fill="#C89663"/>
<path d="M106.455 284.329C99.4707 297.34 90.4013 308.213 85.582 308.859C93.9402 301.265 99.7445 292.4 106.455 284.329Z" fill="#C89663"/>
<path d="M149.582 174.668C152.257 165.368 166.088 157.56 178.806 160.253C172.651 161.27 167.034 161.101 161.992 163.729C156.95 166.357 152.601 169.743 149.581 174.695L149.582 174.668Z" fill="#C89663"/>
<path d="M115.656 31.7577C116.134 32.5056 116.47 32.8166 116.458 33.0852C116.097 41.8158 115.68 50.5709 115.316 58.7362C113.988 53.5098 113.942 37.6291 115.629 31.7565L115.656 31.7577Z" fill="#C89663"/>
<path d="M192.197 73.463C186.759 83.1786 186.108 93.5649 183.691 103.119C183.168 91.8999 187.571 75.2216 192.197 73.463Z" fill="#C89663"/>
<path d="M141.467 75.2677C139.475 65.598 140.125 55.8307 141.153 46.0532C141.607 55.789 142.063 65.498 142.518 75.2338C142.167 75.2451 141.817 75.2564 141.467 75.2677Z" fill="#C89663"/>
<path d="M225.797 202.526C216.784 199.434 203.274 190.354 202.332 186.733C210.144 192.006 217.958 197.252 225.797 202.526Z" fill="#C89663"/>
<path d="M142.03 224.579C148.712 217.153 155.608 209.763 164.42 204.665C164.574 204.833 164.702 205 164.856 205.169C157.247 211.639 149.639 218.109 142.03 224.579Z" fill="#C89663"/>
<path d="M235.592 249.091C230.945 249.503 218.909 240.57 213.437 232.899C220.44 238.808 227.158 245.082 235.592 249.091Z" fill="#C89663"/>
<path d="M163.373 193.745C173.314 195.937 183.03 193.49 192.823 192.365C183.105 194.838 173.415 197.287 163.373 193.745Z" fill="#C89663"/>
<path d="M197.623 196.373C199.515 204.666 205.871 210.009 210.922 216.854C203.998 212.778 196.515 201.33 197.623 196.373Z" fill="#C89663"/>
<path d="M287.546 213.161C280.593 210.94 273.64 208.747 266.448 206.462C270.96 206.071 285.177 210.149 287.739 212.443C287.675 212.682 287.61 212.921 287.546 213.161Z" fill="#C89663"/>
<path d="M120.781 166.9C131.075 169.027 141.225 173.166 143.165 176.132C135.343 172.904 128.076 169.889 120.781 166.9Z" fill="#C89663"/>
<path d="M23.9447 138.582C27.7977 137.273 39.2338 139.128 49.7829 142.774C41.2589 141.398 32.7618 140.024 23.9447 138.582Z" fill="#C89663"/>
<path d="M161.528 166.885C168.278 162.179 175.663 161.324 183.54 163.317C176.009 163.223 168.516 163.482 161.528 166.885Z" fill="#C89663"/>
<path d="M161.613 177.061C164.916 174.813 176.1 176.279 183.37 179.833C175.838 179.147 168.934 176.445 161.613 177.061Z" fill="#C89663"/>
<path d="M188.913 165.951C186.741 157.914 189.103 150.215 190.633 142.451C190.39 150.326 187.921 158.021 188.913 165.951Z" fill="#C89663"/>
<path d="M234.946 175.348C244.087 174.975 253.259 176.89 254.742 179.244C248.152 177.955 241.535 176.664 234.946 175.348Z" fill="#C89663"/>
<path d="M197.618 271.46C194.544 269.763 190.178 259.018 189.864 253.38C192.496 259.552 195.057 265.506 197.618 271.46Z" fill="#C89663"/>
<path d="M181.27 95.2327C181.271 86.7552 182.708 79.2566 185.371 76.8723C183.961 83.1609 182.549 89.4765 181.27 95.2327Z" fill="#C89663"/>
<path d="M27.6822 160.413C31.3973 159.179 34.5069 160.663 37.597 160.774C40.7139 160.886 43.7824 161.48 47.6627 161.976C41.0486 162.435 30.4522 161.667 27.6822 160.413Z" fill="#C89663"/>
<path d="M101.823 297.095C99.6314 302.191 96.6018 306.766 92.5827 310.597C92.2968 310.369 92.0097 310.168 91.7238 309.94C95.0906 305.649 98.4562 301.385 101.85 297.096L101.823 297.095Z" fill="#C89663"/>
<path d="M220.981 44.7363C221.57 39.9721 222.743 35.3953 225.456 30.6718C225.818 31.6029 226.174 32.0763 226.054 32.3669C224.39 36.4913 222.672 40.6132 220.981 44.7363Z" fill="#C89663"/>
<path d="M227.964 239.681C232.845 241.271 238.41 244.425 240.004 246.703C235.283 245.147 231.778 242.865 227.964 239.681Z" fill="#C89663"/>
<path d="M110.494 50.9857C109.328 46.9507 108.675 42.8847 109.53 38.8051C109.745 38.8146 109.987 38.7985 110.204 38.7813C110.292 42.849 110.38 46.9168 110.469 50.9577L110.494 50.9857Z" fill="#C89663"/>
<path d="M145.649 193.467C146.781 188.618 148.762 186.445 151.629 186.734C149.702 188.91 147.832 191.007 145.649 193.467Z" fill="#C89663"/>
<path d="M165.056 172.882C168.415 172.385 171.719 172.532 175.499 174.073L164.97 173.604C164.98 173.363 165.018 173.122 165.056 172.882Z" fill="#C89663"/>
<path d="M389.952 -23.2305C389.086 -22.5155 388.17 -21.8834 387.382 -21.1111C372.941 -6.84444 362.975 10.259 355.706 29.0435C349.929 43.9382 344.551 58.9584 338.828 73.8555C336.818 79.0948 334.411 84.2087 332.031 89.2969C324.271 105.826 312.548 118.868 297.505 129.125C282.739 139.179 266.632 146.131 249.537 151.076C242.639 153.083 235.954 155.746 229.173 158.135C228.161 158.494 227.218 159.125 225.979 159.742C232.58 161.409 238.806 163.005 245.035 164.547C253.819 166.741 262.422 169.358 269.563 175.193C278.625 182.621 285.628 191.572 288.611 203.143C292.516 218.2 283.975 232.917 273.336 239.145C266.731 243.022 260.228 247.039 253.775 251.138C246.461 255.818 238.692 258.648 229.856 257.636C224.689 257.029 219.748 255.571 214.969 253.501C213.965 253.08 212.988 252.659 211.587 252.086C211.839 254.277 212.164 256.041 212.248 257.794C212.517 262.623 211.134 267.083 209.136 271.461C206.662 276.868 204.08 282.271 202.213 287.92C198.269 299.748 198.621 311.793 201.366 323.865C202.152 327.372 202.694 330.921 203.154 334.494C203.688 338.824 203.068 343.076 201.304 347.034C198.789 352.735 194.382 354.396 188.569 351.984C184.606 350.327 181.495 347.659 179.011 344.211C175.894 339.874 173.686 335.066 172.109 329.99C170.812 325.868 168.879 322.122 166.648 318.443C159.527 306.715 154.573 294.061 151.725 280.666C151.102 277.732 150.995 274.686 150.602 271.439C150.233 271.853 149.845 272.105 149.694 272.475C144.078 285.574 134.396 295.1 122.851 302.956C117.799 306.391 112.476 309.303 106.537 310.923C101.469 312.312 96.2831 312.727 91.2491 310.942C82.6382 307.894 73.6742 307.333 64.7222 306.504C57.8874 305.877 51.8614 303.401 46.648 298.998C41.6936 294.821 39.4546 289.5 39.5303 282.964C39.6739 271.882 44.119 262.714 51.3402 254.666C53.294 252.492 55.4811 250.517 57.4093 248.316C60.6118 244.69 63.8926 241.122 66.8093 237.269C70.6978 232.14 74.6108 227.067 79.5856 222.928C79.9772 222.596 80.2673 222.124 80.8356 221.45C79.8173 221.351 79.1542 221.133 78.5573 221.241C71.7265 222.336 65.0582 220.99 58.5338 219.434C45.8306 216.419 34.0921 211.079 23.3906 203.606C18.5615 200.242 14.1007 196.464 10.5437 191.73C4.87929 184.158 6.67894 176.379 15.1037 172.125C20.1142 169.603 25.1467 167.19 30.4842 164.575C29.1682 163.305 27.9172 162.388 26.9748 161.189C18.8551 150.735 19.1929 137.105 29.4254 128.518C37.4218 121.796 46.62 118.303 57.4128 118.891C71.6425 119.66 84.7545 123.769 97.2133 130.46C99.4473 131.663 101.685 132.785 103.947 133.962C104.118 133.755 104.262 133.546 104.431 133.365C103.692 132.444 102.924 131.549 102.212 130.629C98.3477 125.532 94.1801 120.609 90.7055 115.234C86.1465 108.222 84.0748 100.352 83.9131 91.8937C83.6292 75.3027 89.9072 61.2376 99.8953 48.4682C103.034 44.4633 106.352 40.6549 110.547 37.7198C112.715 36.1746 114.127 34.0844 115.257 31.6588C116.776 28.3892 118.241 25.0903 120.126 22.0523C122.824 17.678 126.642 14.7261 131.904 13.8032C134.887 13.2901 137.513 14.1606 140.015 15.4023C150.103 20.3191 156.798 28.3143 159.602 39.0966C161.327 45.6864 162.421 52.5441 162.872 59.3462C163.384 67.1738 162.897 75.0914 162.79 82.9452C162.589 95.3162 162.01 107.697 163.696 120.018C163.901 121.453 164.078 122.914 164.364 124.353C164.519 125.087 164.892 125.776 165.355 126.874C165.64 113.834 168.12 101.645 172.652 89.9242C176.97 78.7861 183.171 68.8622 191.574 60.2475C194.508 57.2293 196.694 53.4512 199.033 49.8951C201.371 46.3391 203.293 42.4685 205.762 38.999C209.206 34.1735 213.898 30.9376 219.866 29.8846C227.924 28.4402 242.61 32.8619 244.847 45.476C245.729 50.4404 246.394 55.4489 247.277 60.4132C248.831 69.0139 250.765 77.5775 252.075 86.2211C254.142 99.635 252.782 112.654 246.821 125.038C243.647 131.652 239.306 137.271 233.817 142.087C227.459 147.671 221.205 153.34 216.5 160.478C216.009 161.236 215.519 161.968 215.053 162.755C214.965 162.912 215.035 163.158 215.092 163.698C216.88 162.836 218.658 162.188 220.209 161.208C229.288 155.557 239.163 151.96 249.41 149.106C265.787 144.56 281.135 137.735 295.335 128.301C311.614 117.481 324.134 103.451 331.772 85.4369C337.728 71.3575 343.234 57.0966 348.556 42.7467C353.693 28.9269 358.908 15.1645 366.578 2.48013C372.419 -7.21753 379.351 -16.0323 387.532 -23.8765C388.32 -24.6488 389.289 -25.2516 390.153 -25.9128L390.032 -23.2L389.952 -23.2305ZM147.431 167.36C134.743 156.164 121.292 146.361 106.979 137.785C93.6368 129.789 79.9383 122.532 64.0864 120.723C55.7325 119.759 47.4096 119.307 39.6904 123.431C36.4372 125.17 33.1757 127.097 30.3516 129.474C18.2735 139.621 22.1995 156.616 30.8037 162.84C31.4561 163.299 31.9096 163.992 32.4742 164.609C29.3858 166.275 26.655 167.768 23.8996 169.207C21.0064 170.719 18.0642 172.122 15.1979 173.637C8.08511 177.437 6.33091 184.195 11.2982 190.499C14.1254 194.096 17.4492 197.42 21.0374 200.244C31.6982 208.631 43.8019 214.23 56.8889 217.692C63.7517 219.505 70.7555 220.57 77.9104 220.055C81.0697 219.819 84.0786 219.334 86.8752 217.574C101.884 208.096 117.703 200.377 134.872 195.571C136.561 195.108 138.228 194.536 139.32 194.181C139.976 190.954 140.494 188.366 141.188 184.871C139.846 179.348 140.748 176.616 147.485 167.362L147.431 167.36ZM140.283 195.542C139.96 195.528 139.745 195.518 139.528 195.563C126.598 199.454 114.006 204.222 101.772 210.002C87.7228 216.67 76.0858 225.975 67.403 239.045C64.6332 243.228 60.8958 246.775 57.5249 250.554C54.9174 253.506 52.0766 256.26 49.5999 259.298C43.9307 266.339 40.8263 274.409 40.6369 283.497C40.5045 289.493 42.5944 294.538 47.27 298.326C52.2561 302.396 57.9328 304.856 64.4477 305.415C73.617 306.2 82.8263 306.691 91.679 309.75C94.3291 310.675 97.4251 310.651 100.309 310.564C106.184 310.369 111.456 308.02 116.455 305.147C128.774 298.053 139.138 288.933 146.209 276.41C148.955 271.554 150.744 266.439 150.863 260.739C150.907 257.942 151.408 255.139 152.015 252.393C155.723 235.603 163.873 221.191 175.572 208.686C176.053 208.169 176.429 207.567 176.916 206.916C173.949 206.461 171.304 206.02 168.628 205.686C167.397 205.523 166.161 205.468 164.919 205.574C155.084 206.428 146.76 203.582 140.285 195.489L140.283 195.542ZM204.473 178.539C205.641 175.9 206.381 173.78 207.49 171.837C208.599 169.895 210.102 168.186 211.394 166.359C211.594 166.099 211.716 165.782 211.864 165.465C215.683 157.669 221.244 151.242 227.562 145.361C230.426 142.689 233.059 139.765 235.665 136.84C241.931 129.691 243.495 121.176 243.016 111.977C242.629 104.962 240.965 98.2139 239.302 91.4386C236.862 81.5606 236.411 71.7442 238.553 61.7203C239.944 55.2425 240.456 48.5908 239.65 41.9074C239.277 38.7959 238.126 36.2417 235.146 34.871C233.116 33.9194 231.058 32.9935 228.938 32.2532C223.37 30.3636 218.67 31.3653 214.823 36.1729C211.145 40.7996 208.151 45.7798 205.917 51.2244C204.288 55.1619 202.685 59.1275 200.951 63.0333C198.827 67.81 195.461 71.4817 190.905 74.0778C188.474 75.4767 186.067 76.9573 183.686 78.4392C179.256 81.2293 176.231 85.1046 174.316 90.0252C170.392 100.185 168.067 110.685 167.049 121.459C166.651 125.559 167.029 129.774 167.547 133.861C168.744 143.226 174.034 150.755 179.272 158.228C179.93 159.172 181.199 159.686 182.219 160.351C184.496 161.798 186.973 162.984 188.996 164.689C191.591 166.85 194.163 168.929 197.045 170.699C199.087 171.975 200.665 174.009 202.39 175.755C203.059 176.457 203.587 177.288 204.476 178.485L204.473 178.539ZM148.57 72.2735C148.421 70.7866 148.378 69.3314 148.117 67.9473C147.164 63.3565 147.151 58.8077 148.323 54.2578C149.331 50.3465 150.287 46.4059 151.455 42.5555C152.841 38.0151 153.017 33.4478 151.711 28.949C151.152 26.9864 150.146 24.7886 148.67 23.4849C145.667 20.8213 142.386 18.3607 138.864 16.4545C134.449 14.078 129.797 14.5975 125.91 17.8693C123.896 19.5828 122.105 21.7368 120.712 23.9893C119.086 26.662 118.194 29.7711 116.673 32.5023C115.443 34.7352 114.124 37.1793 112.173 38.6803C105.371 43.9484 100.309 50.6665 95.7127 57.7822C89.2942 67.7502 85.7711 78.5738 85.5881 90.5419C85.4751 99.122 87.6006 106.995 91.9023 114.345C96.654 122.469 102.827 129.499 109.365 136.195C111.244 138.109 113.375 139.819 115.595 141.344C125.728 148.281 135.776 155.322 145.023 163.431C146.265 164.536 147.679 165.433 149.11 166.52C155.643 161.24 163.026 158.635 171.255 158.167C171.041 157.538 171.026 157.269 170.869 157.154C170.196 156.559 169.495 155.989 168.794 155.42C159.295 147.515 150.974 138.559 144.392 128.039C137.107 116.358 133.278 103.834 134.626 89.8727C135.522 80.6276 139.306 75.4404 148.542 72.2992L148.57 72.2735ZM288.02 212.186C287.951 211.322 287.849 209.972 287.775 208.623C287.34 201.471 283.885 196.258 277.51 193.148C274.691 191.785 271.695 190.79 268.725 189.797C264.934 188.498 261.519 186.623 258.713 183.753C256.989 181.981 255.125 180.31 253.596 178.385C248.699 172.327 242.627 167.858 235.705 164.347C226.546 159.714 215.86 162.172 210.15 170.718C208.595 173.017 207.481 175.659 206.451 178.25C203.144 186.634 199.678 194.958 194.348 202.256C191.281 206.452 188.984 210.898 188.141 215.92C186.603 225.083 188.321 233.637 195.688 239.859C202.846 245.91 211.01 250.526 219.945 253.561C222.066 254.275 224.574 254.171 226.87 253.977C230.518 253.655 233.308 251.438 235.916 249.078C243.125 242.51 251.506 238.63 261.268 237.585C264.594 237.222 267.963 236.511 271.084 235.331C280.884 231.622 287.409 223.489 288.074 212.189L288.02 212.186ZM193.987 200.679C193.832 200.537 193.678 200.369 193.523 200.228C191.043 201.517 188.681 203.188 186.033 204.039C180.599 205.788 176.801 209.495 173.306 213.645C167.649 220.417 162.986 227.826 159.292 235.843C152.472 250.584 150.438 266.049 153.742 281.913C156.426 294.762 161.489 306.776 168.253 318.057C170.257 321.403 171.9 325.002 173.298 328.67C175.225 333.735 177.1 338.771 180.32 343.22C182.88 346.779 186.067 349.531 190.283 350.957C194.126 352.285 196.721 351.432 198.945 348.032C201.053 344.816 201.375 341.197 200.322 337.652C199.318 334.216 197.823 330.92 196.299 327.676C193.448 321.575 189.887 315.737 187.583 309.445C183.766 299.075 184.651 288.86 190.884 279.449C193.249 275.894 195.902 272.514 198.345 269.016C200.414 266.067 202.589 263.177 204.29 260.023C206.05 256.764 206.99 253.173 206.436 249.3C203.584 247.477 200.807 245.766 198.116 243.95C194.509 241.556 191.462 238.648 189.292 234.811C184.053 225.535 185.481 211.603 192.147 203.315C192.83 202.484 193.385 201.513 193.99 200.625L193.987 200.679ZM177.159 158.537C177.092 158.238 177.104 157.97 177.004 157.804C176.45 156.945 175.895 156.113 175.313 155.28C167.65 144.227 163.295 132.03 161.71 118.664C160.303 106.76 160.618 94.8516 161.122 82.9247C161.536 73.0123 161.896 63.1244 160.666 53.2733C159.857 46.6705 158.829 40.1388 156.006 34.0115C155.614 33.1597 155.056 32.3813 154.381 31.2209C154.129 32.044 153.954 32.3592 153.968 32.6558C154.234 38.1579 152.9 43.3465 151.243 48.5208C149.019 55.5536 147.759 62.6833 150.015 70.0502C150.321 71.0327 149.973 72.2014 149.919 73.4101C148.906 73.7956 148.107 74.2175 147.264 74.4222C142.337 75.6561 139.072 78.8748 137.68 83.5495C136.541 87.3742 135.766 91.4843 135.803 95.4691C135.948 105.514 138.73 114.977 143.694 123.756C149.283 133.64 156.489 142.25 164.784 149.966C167.498 152.482 170.352 154.87 173.235 157.205C174.301 158.06 175.463 159.162 177.132 158.536L177.159 158.537ZM203.663 181.625C201.208 176.321 197.761 172.75 192.93 170.624C184.906 167.091 176.959 167.867 169.11 171.286C168.204 171.676 167.393 172.366 166.638 173.006C164.117 175.235 161.595 177.464 159.125 179.749C157.916 180.906 156.678 182.116 155.755 183.502C149.728 192.545 154.69 201.378 162.912 202.901C165.127 203.323 167.349 203.583 169.532 204.111C178.665 206.321 186.592 203.579 193.829 198.196C195.054 197.281 196.316 196.127 197.022 194.785C199.368 190.449 201.477 185.995 203.664 181.598L203.663 181.625ZM208.23 250.106C207.959 250.148 207.688 250.19 207.417 250.231C208.365 258.563 203.896 264.635 199.269 270.645C198.583 271.53 197.846 272.385 197.212 273.326C195.111 276.381 192.88 279.35 190.988 282.549C188.05 287.478 186.652 292.879 186.88 298.648C187.084 303.744 188.264 308.668 190.508 313.262C193.885 320.221 197.372 327.132 200.831 334.068C200.882 334.151 201.151 334.136 201.606 334.21C201.088 331.334 200.671 328.597 200.093 325.88C198.745 319.281 197.316 312.677 197.483 305.902C197.719 295.175 200.376 285.066 205.137 275.455C206.733 272.243 208.251 268.973 209.504 265.611C211.033 261.507 211.008 257.227 209.849 253.031C209.572 251.996 208.751 251.098 208.174 250.157L208.23 250.106ZM243.684 126.594C243.91 126.361 244.189 126.132 244.335 125.869C244.774 125.081 245.16 124.264 245.545 123.474C251.566 110.958 252.475 97.7846 250.196 84.3074C248.745 75.7921 246.941 67.3419 245.354 58.8743C244.505 54.369 243.766 49.8147 242.917 45.3093C242.762 44.5489 242.308 43.8559 241.99 43.142C241.433 44.1668 241.394 45.0532 241.354 45.9396C241.191 49.6193 241.214 53.3343 240.863 56.9788C240.39 61.5599 239.409 66.0645 238.909 70.6443C238.07 78.6001 239.692 86.2887 241.613 93.9367C244.311 104.661 246.253 115.432 243.71 126.622L243.684 126.594ZM187.96 166.204C185.511 162.57 178.162 160.197 173.492 159.908C163.267 159.265 154.574 162.887 147.265 169.882C144.426 172.609 142.976 176.15 142.108 179.933C141.641 181.958 141.848 183.959 143.813 185.769C144.675 185.753 145.924 186.105 146.805 185.66C149.636 184.332 152.522 182.981 155 181.126C158.371 178.558 161.488 175.629 164.528 172.643C167.286 169.939 170.589 168.283 174.277 167.667C178.777 166.926 183.337 166.671 187.96 166.204ZM283.273 194.885C279.238 186.981 274.024 180.183 266.716 175.067C260.19 170.524 246.928 165.546 242.591 166.241C247.625 169.238 251.369 173.414 255.056 177.642C256.822 179.686 258.613 181.757 260.693 183.411C262.849 185.148 265.226 186.761 267.763 187.816C272.995 189.987 278.56 191.338 283.274 194.858L283.273 194.885ZM228.542 255.72C228.888 255.79 229.315 255.889 229.743 255.935C237.18 256.939 243.988 255.143 250.324 251.281C257.986 246.616 265.676 241.953 273.312 237.26C274.391 236.608 275.343 235.789 276.344 235.054C271.349 237.226 266.285 238.535 261.036 239.162C251.566 240.302 243.528 244.331 236.387 250.579C234.063 252.602 231.228 254.01 228.514 255.746L228.542 255.72ZM214.474 33.7352C210.972 35.6247 208.58 37.9673 206.705 40.7904C204.541 44.0581 202.559 47.4685 200.709 50.9386C198.359 55.3554 195.543 59.3746 191.892 62.7914C187.258 67.1334 183.74 72.3863 180.46 77.7573C180.17 78.2289 180.117 78.8186 179.894 79.5891C183.884 77.0217 187.542 74.6547 191.279 72.3182C194.713 70.1566 197.318 67.2583 199.119 63.6784C200.24 61.4676 201.308 59.2276 202.191 56.9255C205.234 49.0409 208.698 41.3635 214.262 34.8561C214.376 34.7266 214.36 34.4837 214.502 33.7096L214.474 33.7352ZM151.147 187.872C149.729 185.871 148.303 187.072 146.925 187.199C145.412 187.32 143.905 187.334 142.396 187.374C140.606 191.305 141.234 194.724 144.328 197.768C146.777 200.191 149.719 201.803 153.014 202.757C154.741 203.264 156.414 204.361 158.868 203.663C152.471 199.853 151.337 193.882 151.174 187.873L151.147 187.872Z" fill="#C89663"/>
</g>
</g>
<defs>
<clipPath id="clip0_2_5806">
<rect width="300.499" height="373.208" fill="white" transform="translate(0 344.046) rotate(-87.4504)"/>
</clipPath>
<clipPath id="clip1_2_5806">
<rect width="344.844" height="299.988" fill="white" transform="translate(0 344.503) rotate(-87.4504)"/>
</clipPath>
</defs>
</svg>
